<svg id="Layer_1" data-name="Layer 1" xmlns="http://www.w3.org/2000/svg" xmlns:xlink="http://www.w3.org/1999/xlink" viewBox="0 0 56.69 56.69"><defs><style>.cls-1,.cls-2,.cls-4{fill:#a7a9ac;}.cls-1{clip-rule:evenodd;}.cls-2{fill-rule:evenodd;}.cls-3{clip-path:url(#clip-path);}</style><clipPath id="clip-path"><path class="cls-1" d="M45.4,16.59a9.1,9.1,0,0,0,3.79-5,16.62,16.62,0,0,1-5.48,2.21,8.39,8.39,0,0,0-6.29-2.87A8.86,8.86,0,0,0,28.81,20,9.32,9.32,0,0,0,29,22.05a24.06,24.06,0,0,1-17.76-9.49,9.43,9.43,0,0,0-1.17,4.57,9.26,9.26,0,0,0,3.84,7.57A8.47,8.47,0,0,1,10,23.56v.11A9,9,0,0,0,17,32.58a8.21,8.21,0,0,1-2.28.32,7.78,7.78,0,0,1-1.61-.16,8.68,8.68,0,0,0,8,6.31,16.71,16.71,0,0,1-10.7,3.89,15.46,15.46,0,0,1-2.05-.13A23.46,23.46,0,0,0,21.56,46.9C37.41,46.9,46.07,33.05,46.07,21c0-.4,0-.79,0-1.18a18,18,0,0,0,4.3-4.7,16.7,16.7,0,0,1-5,1.43Zm0,0"/></clipPath></defs><title>Artboard 2</title><path class="cls-2" d="M45.4,16.59a9.1,9.1,0,0,0,3.79-5,16.62,16.62,0,0,1-5.48,2.21,8.39,8.39,0,0,0-6.29-2.87A8.86,8.86,0,0,0,28.81,20,9.32,9.32,0,0,0,29,22.05a24.06,24.06,0,0,1-17.76-9.49,9.43,9.43,0,0,0-1.17,4.57,9.26,9.26,0,0,0,3.84,7.57A8.47,8.47,0,0,1,10,23.56v.11A9,9,0,0,0,17,32.58a8.21,8.21,0,0,1-2.28.32,7.78,7.78,0,0,1-1.61-.16,8.68,8.68,0,0,0,8,6.31,16.71,16.71,0,0,1-10.7,3.89,15.46,15.46,0,0,1-2.05-.13A23.46,23.46,0,0,0,21.56,46.9C37.41,46.9,46.07,33.05,46.07,21c0-.4,0-.79,0-1.18a18,18,0,0,0,4.3-4.7,16.7,16.7,0,0,1-5,1.43Zm0,0"/><g class="cls-3"><rect class="cls-4" x="-1.65" y="0.9" width="62" height="56"/></g></svg>