<svg id="Layer_1" data-name="Layer 1" xmlns="http://www.w3.org/2000/svg" xmlns:xlink="http://www.w3.org/1999/xlink" viewBox="0 0 56.69 56.69"><defs><style>.cls-1,.cls-2,.cls-4{fill:#a7a9ac;}.cls-1{clip-rule:evenodd;}.cls-2{fill-rule:evenodd;}.cls-3{clip-path:url(#clip-path);}</style><clipPath id="clip-path"><path class="cls-1" d="M28.35,10.31c5.87,0,6.57,0,8.89.13a12.2,12.2,0,0,1,4.08.76,7.28,7.28,0,0,1,4.18,4.17,12.09,12.09,0,0,1,.75,4.09c.11,2.32.13,3,.13,8.89s0,6.57-.13,8.89a12,12,0,0,1-.75,4.08,7.33,7.33,0,0,1-4.18,4.18,12,12,0,0,1-4.08.75c-2.32.11-3,.13-8.89.13s-6.57,0-8.89-.13a12.09,12.09,0,0,1-4.09-.75,7.28,7.28,0,0,1-4.17-4.18,12,12,0,0,1-.76-4.08c-.11-2.32-.13-3-.13-8.89s0-6.57.13-8.89a12,12,0,0,1,.76-4.09,7.22,7.22,0,0,1,4.17-4.17,12.28,12.28,0,0,1,4.09-.76c2.32-.11,3-.13,8.89-.13m0-4c-6,0-6.73,0-9.07.13a16.24,16.24,0,0,0-5.34,1A11.26,11.26,0,0,0,7.5,13.94a16.29,16.29,0,0,0-1,5.34c-.11,2.34-.13,3.09-.13,9.07s0,6.72.13,9.07a16.35,16.35,0,0,0,1,5.34A10.81,10.81,0,0,0,10,46.65a10.63,10.63,0,0,0,3.9,2.54,15.73,15.73,0,0,0,5.34,1c2.34.11,3.09.14,9.07.14s6.72,0,9.07-.14a15.84,15.84,0,0,0,5.34-1,11.31,11.31,0,0,0,6.43-6.43,15.84,15.84,0,0,0,1-5.34c.11-2.35.14-3.1.14-9.07s0-6.73-.14-9.07a15.79,15.79,0,0,0-1-5.34A10.63,10.63,0,0,0,46.65,10,10.81,10.81,0,0,0,42.76,7.5a16.35,16.35,0,0,0-5.34-1c-2.35-.11-3.1-.13-9.07-.13Zm0,10.73A11.31,11.31,0,1,0,39.7,28.39,11.32,11.32,0,0,0,28.39,17.08Zm0,18.65a7.34,7.34,0,1,1,7.34-7.34,7.34,7.34,0,0,1-7.34,7.34ZM42.66,16.56A2.62,2.62,0,1,1,40,13.94a2.62,2.62,0,0,1,2.62,2.62Zm0,0"/></clipPath></defs><title>Artboard 3</title><path class="cls-2" d="M28.35,10.31c5.87,0,6.57,0,8.89.13a12.2,12.2,0,0,1,4.08.76,7.28,7.28,0,0,1,4.18,4.17,12.09,12.09,0,0,1,.75,4.09c.11,2.32.13,3,.13,8.89s0,6.57-.13,8.89a12,12,0,0,1-.75,4.08,7.33,7.33,0,0,1-4.18,4.18,12,12,0,0,1-4.08.75c-2.32.11-3,.13-8.89.13s-6.57,0-8.89-.13a12.09,12.09,0,0,1-4.09-.75,7.28,7.28,0,0,1-4.17-4.18,12,12,0,0,1-.76-4.08c-.11-2.32-.13-3-.13-8.89s0-6.57.13-8.89a12,12,0,0,1,.76-4.09,7.22,7.22,0,0,1,4.17-4.17,12.28,12.28,0,0,1,4.09-.76c2.32-.11,3-.13,8.89-.13m0-4c-6,0-6.73,0-9.07.13a16.24,16.24,0,0,0-5.34,1A11.26,11.26,0,0,0,7.5,13.94a16.29,16.29,0,0,0-1,5.34c-.11,2.34-.13,3.09-.13,9.07s0,6.72.13,9.07a16.35,16.35,0,0,0,1,5.34A10.81,10.81,0,0,0,10,46.65a10.63,10.63,0,0,0,3.9,2.54,15.73,15.73,0,0,0,5.34,1c2.34.11,3.09.14,9.07.14s6.72,0,9.07-.14a15.84,15.84,0,0,0,5.34-1,11.31,11.31,0,0,0,6.43-6.43,15.84,15.84,0,0,0,1-5.34c.11-2.35.14-3.1.14-9.07s0-6.73-.14-9.07a15.79,15.79,0,0,0-1-5.34A10.63,10.63,0,0,0,46.65,10,10.81,10.81,0,0,0,42.76,7.5a16.35,16.35,0,0,0-5.34-1c-2.35-.11-3.1-.13-9.07-.13Zm0,10.73A11.31,11.31,0,1,0,39.7,28.39,11.32,11.32,0,0,0,28.39,17.08Zm0,18.65a7.34,7.34,0,1,1,7.34-7.34,7.34,7.34,0,0,1-7.34,7.34ZM42.66,16.56A2.62,2.62,0,1,1,40,13.94a2.62,2.62,0,0,1,2.62,2.62Zm0,0"/><g class="cls-3"><rect class="cls-4" x="-3.65" y="-3.65" width="64" height="64"/></g></svg>