<svg id="Layer_1" data-name="Layer 1" xmlns="http://www.w3.org/2000/svg" xmlns:xlink="http://www.w3.org/1999/xlink" viewBox="0 0 56.69 56.69"><defs><style>.cls-1,.cls-2,.cls-4{fill:#a7a9ac;}.cls-1{clip-rule:evenodd;}.cls-2{fill-rule:evenodd;}.cls-3{clip-path:url(#clip-path);}</style><clipPath id="clip-path"><path class="cls-1" d="M9.36,21.17h7.79V48.34H9.36V21.17Zm3.69-3.4H13a4.5,4.5,0,0,1-4.65-4.7,4.54,4.54,0,0,1,4.76-4.72,4.52,4.52,0,0,1,4.7,4.71,4.53,4.53,0,0,1-4.76,4.71Zm35.3,30.58H39.51V34.28c0-3.68-1.39-6.19-4.43-6.19a4.54,4.54,0,0,0-4.22,3.33,6.67,6.67,0,0,0-.19,2.22V48.35H21.91s.11-24.91,0-27.18h8.76v4.27c.52-1.87,3.32-4.53,7.78-4.53,5.54,0,9.9,3.91,9.9,12.33V48.35Zm0,0"/></clipPath></defs><title>Artboard 4</title><path class="cls-2" d="M9.36,21.17h7.79V48.34H9.36V21.17Zm3.69-3.4H13a4.5,4.5,0,0,1-4.65-4.7,4.54,4.54,0,0,1,4.76-4.72,4.52,4.52,0,0,1,4.7,4.71,4.53,4.53,0,0,1-4.76,4.71Zm35.3,30.58H39.51V34.28c0-3.68-1.39-6.19-4.43-6.19a4.54,4.54,0,0,0-4.22,3.33,6.67,6.67,0,0,0-.19,2.22V48.35H21.91s.11-24.91,0-27.18h8.76v4.27c.52-1.87,3.32-4.53,7.78-4.53,5.54,0,9.9,3.91,9.9,12.33V48.35Zm0,0"/><g class="cls-3"><rect class="cls-4" x="-1.65" y="-1.65" width="60" height="60"/></g></svg>