<svg id="Layer_1" data-name="Layer 1" xmlns="http://www.w3.org/2000/svg" xmlns:xlink="http://www.w3.org/1999/xlink" viewBox="0 0 56.69 56.69"><defs><style>.cls-1,.cls-2,.cls-4{fill:#a7a9ac;}.cls-1{clip-rule:evenodd;}.cls-2{fill-rule:evenodd;}.cls-3{clip-path:url(#clip-path);}</style><clipPath id="clip-path"><path class="cls-1" d="M10.57,22.21l5,3.24c2.8,1.79,5,3.18,6.44,4.15l1,.69c.53.36,1,.64,1.33.86s.77.47,1.27.74a7.51,7.51,0,0,0,1.41.61,4.18,4.18,0,0,0,1.23.21h.05a4.07,4.07,0,0,0,1.23-.21A7.51,7.51,0,0,0,31,31.89c.5-.27.93-.52,1.28-.74s.79-.5,1.32-.86.88-.59,1-.69q2.25-1.46,11.49-7.39a11.12,11.12,0,0,0,3-2.8A5.65,5.65,0,0,0,50.35,16a3.37,3.37,0,0,0-1.17-2.57,4,4,0,0,0-2.76-1.06H10.27a3.59,3.59,0,0,0-2.9,1.18,4.36,4.36,0,0,0-1,3A5.11,5.11,0,0,0,7.7,19.59a11.82,11.82,0,0,0,2.87,2.62Zm37.32,2.43q-8.05,5.06-12.23,7.84c-.93.64-1.69,1.14-2.27,1.49a13.85,13.85,0,0,1-2.32,1.09,7.54,7.54,0,0,1-2.7.56h-.05a7.63,7.63,0,0,1-2.7-.56A14.24,14.24,0,0,1,23.3,34c-.58-.35-1.34-.85-2.27-1.49q-3.32-2.25-12.2-7.84a12.13,12.13,0,0,1-2.48-2V40.71A3.37,3.37,0,0,0,7.5,43.28a4,4,0,0,0,2.78,1.07H46.42a3.94,3.94,0,0,0,2.77-1.07,3.38,3.38,0,0,0,1.16-2.57v-18a13.5,13.5,0,0,1-2.46,2Zm0,0"/></clipPath></defs><title>Artboard 6</title><path class="cls-2" d="M10.57,22.21l5,3.24c2.8,1.79,5,3.18,6.44,4.15l1,.69c.53.36,1,.64,1.33.86s.77.47,1.27.74a7.51,7.51,0,0,0,1.41.61,4.18,4.18,0,0,0,1.23.21h.05a4.07,4.07,0,0,0,1.23-.21A7.51,7.51,0,0,0,31,31.89c.5-.27.93-.52,1.28-.74s.79-.5,1.32-.86.88-.59,1-.69q2.25-1.46,11.49-7.39a11.12,11.12,0,0,0,3-2.8A5.65,5.65,0,0,0,50.35,16a3.37,3.37,0,0,0-1.17-2.57,4,4,0,0,0-2.76-1.06H10.27a3.59,3.59,0,0,0-2.9,1.18,4.36,4.36,0,0,0-1,3A5.11,5.11,0,0,0,7.7,19.59a11.82,11.82,0,0,0,2.87,2.62Zm37.32,2.43q-8.05,5.06-12.23,7.84c-.93.64-1.69,1.14-2.27,1.49a13.85,13.85,0,0,1-2.32,1.09,7.54,7.54,0,0,1-2.7.56h-.05a7.63,7.63,0,0,1-2.7-.56A14.24,14.24,0,0,1,23.3,34c-.58-.35-1.34-.85-2.27-1.49q-3.32-2.25-12.2-7.84a12.13,12.13,0,0,1-2.48-2V40.71A3.37,3.37,0,0,0,7.5,43.28a4,4,0,0,0,2.78,1.07H46.42a3.94,3.94,0,0,0,2.77-1.07,3.38,3.38,0,0,0,1.16-2.57v-18a13.5,13.5,0,0,1-2.46,2Zm0,0"/><g class="cls-3"><rect class="cls-4" x="-3.65" y="2.35" width="64" height="52"/></g></svg>