<svg id="Layer_1" data-name="Layer 1" xmlns="http://www.w3.org/2000/svg" xmlns:xlink="http://www.w3.org/1999/xlink" viewBox="0 0 56.69 56.69"><defs><style>.cls-1,.cls-2,.cls-4{fill:#a7a9ac;}.cls-1{clip-rule:evenodd;}.cls-2{fill-rule:evenodd;}.cls-3{clip-path:url(#clip-path);}</style><clipPath id="clip-path"><path class="cls-1" d="M4.35,29A24.54,24.54,0,0,0,20.76,52.3c1.2.23,1.64-.53,1.64-1.18s0-2.13,0-4.19c-6.68,1.49-8.09-3.3-8.09-3.3-1.09-2.84-2.66-3.6-2.66-3.6-2.18-1.52.16-1.49.16-1.49a5.05,5.05,0,0,1,3.68,2.54c2.14,3.76,5.61,2.67,7,2A5.31,5.31,0,0,1,24,39.83C18.64,39.21,13,37.1,13,27.67a9.68,9.68,0,0,1,2.47-6.61,9.08,9.08,0,0,1,.24-6.51s2-.66,6.6,2.52a22.43,22.43,0,0,1,12,0C38.94,13.89,41,14.55,41,14.55a9.08,9.08,0,0,1,.24,6.51,9.63,9.63,0,0,1,2.47,6.61c0,9.45-5.62,11.53-11,12.14a6,6,0,0,1,1.63,4.56c0,3.29,0,5.94,0,6.75s.43,1.42,1.65,1.18A24.57,24.57,0,0,0,52.35,29c0-13.6-10.75-24.61-24-24.61s-24,11-24,24.61Zm0,0"/></clipPath></defs><title>Artboard 5</title><path class="cls-2" d="M4.35,29A24.54,24.54,0,0,0,20.76,52.3c1.2.23,1.64-.53,1.64-1.18s0-2.13,0-4.19c-6.68,1.49-8.09-3.3-8.09-3.3-1.09-2.84-2.66-3.6-2.66-3.6-2.18-1.52.16-1.49.16-1.49a5.05,5.05,0,0,1,3.68,2.54c2.14,3.76,5.61,2.67,7,2A5.31,5.31,0,0,1,24,39.83C18.64,39.21,13,37.1,13,27.67a9.68,9.68,0,0,1,2.47-6.61,9.08,9.08,0,0,1,.24-6.51s2-.66,6.6,2.52a22.43,22.43,0,0,1,12,0C38.94,13.89,41,14.55,41,14.55a9.08,9.08,0,0,1,.24,6.51,9.63,9.63,0,0,1,2.47,6.61c0,9.45-5.62,11.53-11,12.14a6,6,0,0,1,1.63,4.56c0,3.29,0,5.94,0,6.75s.43,1.42,1.65,1.18A24.57,24.57,0,0,0,52.35,29c0-13.6-10.75-24.61-24-24.61s-24,11-24,24.61Zm0,0"/><g class="cls-3"><rect class="cls-4" x="-5.65" y="-5.65" width="68" height="68"/></g></svg>